<?xml version="1.0" encoding="utf-8"?>
<!-- Generator: Adobe Illustrator 26.0.2, SVG Export Plug-In . SVG Version: 6.00 Build 0)  -->
<svg version="1.1" id="Layer_1" xmlns="http://www.w3.org/2000/svg" xmlns:xlink="http://www.w3.org/1999/xlink" x="0px" y="0px"
	 viewBox="0 0 40 40" style="enable-background:new 0 0 40 40;" xml:space="preserve">
<style type="text/css">
	.st0{fill:#FFFFFF;}
</style>
<g>
	<path id="XMLID_15_" class="st0" d="M20,40C9,40,0.1,31.1,0.1,20.1C0.1,9.1,9,0.2,20,0.2c11,0,19.9,8.9,19.9,19.9
		C39.9,31.1,31,40,20,40z M20,1.2C9.6,1.2,1.1,9.7,1.1,20.1C1.1,30.5,9.6,39,20,39c10.4,0,18.9-8.5,18.9-18.9
		C38.9,9.7,30.4,1.2,20,1.2z"/>
	<g id="XMLID_13_">
		<path id="XMLID_14_" class="st0" d="M20.8,9.5c0,0-7.2-0.1-7.2,6.1c0,6.2,11.2,5.5,11.2,10.5c0,1.9-2.6,3.7-2.6,3.7s4.6-2,4.6-6.2
			c0-4.2-3.9-5.2-5.8-6.2c-1.6-0.8-4.6-1.9-4.6-4.2C16.3,10.8,19.4,9.7,20.8,9.5z"/>
	</g>
	<g id="XMLID_11_">
		<path id="XMLID_12_" class="st0" d="M19.6,26.4c0,1.3-1.1,2.4-2.4,2.4c-1.3,0-2.4-1.1-2.4-2.4c0-1.3,1.1-2.4,2.4-2.4
			C18.6,24.1,19.6,25.1,19.6,26.4z"/>
	</g>
	<g id="XMLID_9_">
		<path id="XMLID_10_" class="st0" d="M25.9,13.8c0,1.3-1.1,2.4-2.4,2.4c-1.3,0-2.4-1.1-2.4-2.4c0-1.3,1.1-2.4,2.4-2.4
			C24.8,11.4,25.9,12.5,25.9,13.8z"/>
	</g>
</g>
</svg>
